<svg width="54" height="54" viewBox="0 0 54 54" fill="none" xmlns="http://www.w3.org/2000/svg">
<path d="M43.3554 1.05017V10.5202H41.7066V5.47481H12.8835V10.5202H12.4961C9.88585 10.5202 7.76221 8.3954 7.76221 5.78402C7.76221 4.52034 8.25461 3.33133 9.14841 2.43754C10.0422 1.54258 11.2312 1.05017 12.4961 1.05017H43.3554Z" fill="#E3D6C5"/>
<path d="M41.3207 18.8129V23.9131H19.4414V18.8129H41.3207ZM40.2706 22.863V19.863H20.4916V22.863H40.2706Z" fill="black"/>
<path d="M40.657 9.99744H13.9341V10.5202H40.657V9.99744Z" fill="#FFCC73"/>
<path d="M40.657 8.19702H13.9341V8.9473H40.657V8.19702Z" fill="#FFCC73"/>
<path d="M40.657 6.5249H13.9341V7.14683H40.657V6.5249Z" fill="#FFCC73"/>
<path d="M40.2702 19.863H20.4912V22.863H40.2702V19.863Z" fill="#E3D6C5"/>
<path d="M7.76221 9.10486C8.80886 10.5949 10.5404 11.5704 12.4961 11.5704H46.2375V52.9499H12.3992C9.84268 52.9499 7.76221 50.8694 7.76221 48.3117V45.3024L9.49729 46.2663V25.0077L7.76221 24.0439V21.2225C8.90104 20.6997 9.69099 19.1046 9.69099 17.2155C9.69099 15.3264 8.90104 13.7337 7.76221 13.211V9.10486V9.10486ZM41.3204 23.9132V18.8129H19.4411V23.9132H41.3204Z" fill="#768CAC"/>
<path d="M7.76255 5.78401C7.76255 8.39538 9.8862 10.5202 12.4964 10.5202H12.8838V5.47479H41.707V10.5202H43.3557V1.05015H12.4964C11.2316 1.05015 10.0426 1.54256 9.14876 2.43752C8.25496 3.33132 7.76255 4.52032 7.76255 5.78401ZM7.76255 13.2109C8.90139 13.7337 9.69133 15.3264 9.69133 17.2155C9.69133 19.1046 8.90139 20.6997 7.76255 21.2224V24.0438L9.49764 25.0076V46.2662L7.76255 45.3024V48.3117C7.76255 50.8694 9.84302 52.9498 12.3996 52.9498H46.2378V11.5703H12.4964C10.5408 11.5703 8.80921 10.5949 7.76255 9.10482V13.2109V13.2109ZM47.288 10.5202V54H12.3996C9.26311 54 6.7124 51.4481 6.7124 48.3117V5.78401C6.7124 4.23911 7.31332 2.7864 8.40665 1.69425C9.49881 0.602087 10.9515 0 12.4964 0H44.4059V10.5202H47.288ZM40.6568 10.5202V9.99745H13.9339V10.5202H40.6568ZM40.6568 8.9473V8.19702H13.9339V8.9473H40.6568ZM40.6568 7.14687V6.52495H13.9339V7.14687H40.6568ZM8.64118 17.2155C8.64118 15.9751 8.25263 15.0078 7.76255 14.4921V19.9401C8.25263 19.4243 8.64118 18.457 8.64118 17.2155ZM8.44749 44.4821V25.6249L7.76255 25.2445V44.1017L8.44749 44.4821Z" fill="black"/>
<path d="M8.44714 25.6249V44.4821L7.76221 44.1017V25.2445L8.44714 25.6249Z" fill="#E3D6C5"/>
<path d="M7.76221 14.4921C8.25228 15.0078 8.64083 15.9751 8.64083 17.2155C8.64083 18.457 8.25228 19.4243 7.76221 19.94V14.4921Z" fill="#E3D6C5"/>
</svg>
