<svg width="16" height="16" viewBox="0 0 16 16" fill="none" xmlns="http://www.w3.org/2000/svg">
<path d="M6.66667 14.6666H9.33333C12.6667 14.6666 14 13.3333 14 9.99992V5.99992C14 2.66659 12.6667 1.33325 9.33333 1.33325H6.66667C3.33333 1.33325 2 2.66659 2 5.99992V9.99992C2 13.3333 3.33333 14.6666 6.66667 14.6666Z" stroke="#292D32" stroke-linecap="round" stroke-linejoin="round"/>
<path d="M11 5.05347V5.72013C11 6.2668 10.5533 6.72013 10 6.72013H6C5.45333 6.72013 5 6.27347 5 5.72013V5.05347C5 4.5068 5.44667 4.05347 6 4.05347H10C10.5533 4.05347 11 4.50013 11 5.05347Z" stroke="#292D32" stroke-linecap="round" stroke-linejoin="round"/>
<path d="M5.42408 9.33333H5.43178" stroke="#292D32" stroke-width="1.33333" stroke-linecap="round" stroke-linejoin="round"/>
<path d="M7.99683 9.33333H8.00454" stroke="#292D32" stroke-width="1.33333" stroke-linecap="round" stroke-linejoin="round"/>
<path d="M10.5696 9.33333H10.5773" stroke="#292D32" stroke-width="1.33333" stroke-linecap="round" stroke-linejoin="round"/>
<path d="M5.42408 11.6666H5.43178" stroke="#292D32" stroke-width="1.33333" stroke-linecap="round" stroke-linejoin="round"/>
<path d="M7.99683 11.6666H8.00454" stroke="#292D32" stroke-width="1.33333" stroke-linecap="round" stroke-linejoin="round"/>
<path d="M10.5696 11.6666H10.5773" stroke="#292D32" stroke-width="1.33333" stroke-linecap="round" stroke-linejoin="round"/>
</svg>
