<svg width="14" height="12" viewBox="0 0 14 12" fill="none" xmlns="http://www.w3.org/2000/svg">
<path fill-rule="evenodd" clip-rule="evenodd" d="M11.1253 9.64992C9.34253 11.0931 6.70269 11.4048 4.5424 10.5962C4.22349 10.4923 3.96202 10.4083 3.71346 10.4083C3.02111 10.4116 2.15934 10.955 1.71145 10.5929C1.26357 10.2303 1.9354 9.53224 1.9354 8.96846C1.9354 8.76725 1.83573 8.55939 1.70735 8.30076C0.70781 6.55249 1.09356 4.41508 2.87631 2.97242C5.15209 1.12971 8.8495 1.12971 11.1253 2.97195C13.4052 4.8175 13.4011 7.80769 11.1253 9.64992Z" stroke="#130F26" stroke-width="0.875" stroke-linecap="round" stroke-linejoin="round"/>
<path d="M9.29832 6.50695H9.30357" stroke="#130F26" stroke-width="1.16667" stroke-linecap="round" stroke-linejoin="round"/>
<path d="M6.95994 6.50695H6.96519" stroke="#130F26" stroke-width="1.16667" stroke-linecap="round" stroke-linejoin="round"/>
<path d="M4.62107 6.50695H4.62632" stroke="#130F26" stroke-width="1.16667" stroke-linecap="round" stroke-linejoin="round"/>
</svg>
