<svg width="23" height="23" viewBox="0 0 23 23" fill="none" xmlns="http://www.w3.org/2000/svg">
<path d="M21.22 7.1231L13.9888 1.33814C12.5757 0.212057 10.3677 0.201017 8.96561 1.3271L1.73441 7.1231C0.696654 7.9511 0.0673734 9.6071 0.288173 10.9098L1.67921 19.234C1.99937 21.0997 3.73265 22.5681 5.62049 22.5681H17.3229C19.1887 22.5681 20.9551 21.0666 21.2752 19.2229L22.6663 10.8988C22.865 9.6071 22.2357 7.9511 21.22 7.1231ZM12.2997 18.1521C12.2997 18.6047 11.9243 18.9801 11.4717 18.9801C11.0191 18.9801 10.6437 18.6047 10.6437 18.1521V14.8401C10.6437 14.3874 11.0191 14.0121 11.4717 14.0121C11.9243 14.0121 12.2997 14.3874 12.2997 14.8401V18.1521Z" fill="#AAAAAA"/>
</svg>
