<svg width="8" height="9" viewBox="0 0 8 9" fill="none" xmlns="http://www.w3.org/2000/svg">
<g clip-path="url(#clip0_1013_1520)">
<path d="M7.89057 3.84097L5.47209 2.91853V2.8997H5.66031C5.69904 2.8997 5.73347 2.87501 5.74588 2.83833C5.75832 2.80164 5.74599 2.76112 5.71523 2.73757L4.09066 1.49393V1.28743C4.23685 1.26177 4.38652 1.28273 4.54381 1.30482C4.653 1.32014 4.76429 1.33578 4.87755 1.33578C4.96291 1.33578 5.04937 1.3269 5.13686 1.30232C5.17586 1.29137 5.20279 1.25582 5.20279 1.21532V0.781582C5.20279 0.753298 5.18954 0.726642 5.167 0.709563C5.14447 0.692484 5.11524 0.686936 5.08799 0.694581C4.92086 0.741515 4.74991 0.717515 4.56891 0.692087C4.39916 0.668249 4.2243 0.643707 4.04493 0.678279C4.02198 0.682707 3.97302 0.695557 3.97174 0.696262C3.93592 0.708262 3.90993 0.741714 3.90993 0.781582V1.49393L2.28534 2.73759C2.25458 2.76114 2.24226 2.80166 2.25469 2.83834C2.26712 2.87503 2.30153 2.89972 2.34026 2.89972H2.52849V2.91859L0.109915 3.84097C0.0748906 3.85433 0.0517578 3.88792 0.0517578 3.9254V4.22938C0.0517578 4.25911 0.0663785 4.28695 0.0908667 4.30381C0.106156 4.31434 0.124066 4.31975 0.142138 4.31975C0.153 4.31975 0.163916 4.3178 0.174326 4.31382L0.33284 4.25337V7.76036H0.277212C0.227314 7.76036 0.18685 7.80082 0.18685 7.85072V8.57078C0.18685 8.62068 0.227314 8.66115 0.277212 8.66115H7.72325C7.77315 8.66115 7.81362 8.62068 7.81362 8.57078V7.85072C7.81362 7.80082 7.77315 7.76036 7.72325 7.76036H7.66773V4.25339L7.82616 4.31382C7.83659 4.3178 7.8475 4.31975 7.85834 4.31975C7.87642 4.31975 7.89433 4.31433 7.90962 4.30381C7.93409 4.28695 7.94873 4.25911 7.94873 4.22938V3.9254C7.94873 3.88792 7.92559 3.85433 7.89057 3.84097ZM4.05041 5.70275C4.03523 5.69263 4.01775 5.68757 4.0003 5.68757C3.98284 5.68757 3.96534 5.69263 3.95018 5.70275L2.53044 6.64915V6.52046L4.0003 5.54064L5.47015 6.52046V6.64915L4.05041 5.70275ZM4.73914 2.8997V3.2033C4.73914 3.2532 4.7796 3.29366 4.8295 3.29366H4.8379V5.88181L4.05041 5.35686C4.02005 5.33662 3.98052 5.33662 3.95016 5.35686L3.16256 5.88186V3.29366H3.17106C3.22095 3.29366 3.26142 3.2532 3.26142 3.2033V2.8997H4.73914V2.8997ZM5.29136 3.11294H4.91986V2.8997H5.29136V3.11294ZM3.08071 3.11294H2.70932L2.70923 2.8997H3.08071V3.11294V3.11294ZM2.80803 3.29366H2.98186V6.00234L2.80803 6.1182V3.29366ZM5.01865 6.00228V3.29366H5.19247V6.11814L5.01865 6.00228ZM2.60698 2.71897L2.70623 2.64298H3.39554C3.44543 2.64298 3.4859 2.60251 3.4859 2.55262C3.4859 2.50272 3.44543 2.46225 3.39554 2.46225H2.94231L3.06034 2.37189H3.34132C3.39122 2.37189 3.43168 2.33143 3.43168 2.28153C3.43168 2.23163 3.39122 2.19117 3.34132 2.19117H3.29643L4.00028 1.65235L5.3936 2.71897H2.60698ZM4.54381 0.871077C4.69911 0.892891 4.85867 0.915301 5.02208 0.892475V1.14329C4.87589 1.16893 4.7262 1.14793 4.56893 1.12585C4.41363 1.10405 4.25405 1.08166 4.09066 1.10447V0.853691C4.23685 0.828046 4.38652 0.848992 4.54381 0.871077ZM0.232483 3.98765L2.52851 3.112L2.5286 3.22251L0.232483 4.09821V3.98765ZM0.513565 4.18442L2.62731 3.37828V6.23869L2.38994 6.39691C2.36481 6.41367 2.3497 6.44188 2.3497 6.47209V6.818C2.3497 6.85133 2.36804 6.88194 2.39743 6.89767C2.42681 6.91341 2.46245 6.91167 2.49019 6.89318L2.63378 6.79747V7.30558H2.5625C2.5126 7.30558 2.47214 7.34604 2.47214 7.39594V7.76036H0.513565V4.18442ZM0.367593 8.41858H1.08227C1.13217 8.41858 1.17263 8.37811 1.17263 8.32821C1.17263 8.27832 1.13217 8.23785 1.08227 8.23785H0.367593V8.18363H0.756966C0.806864 8.18363 0.847328 8.14317 0.847328 8.09327C0.847328 8.04337 0.806864 8.00291 0.756966 8.00291H0.367593V7.94106H2.47216V8.00291H2.08278C2.03289 8.00291 1.99242 8.04337 1.99242 8.09327C1.99242 8.14317 2.03289 8.18363 2.08278 8.18363H2.47216V8.23785H2.29313C2.24323 8.23785 2.20277 8.27832 2.20277 8.32821C2.20277 8.37811 2.24323 8.41858 2.29313 8.41858H2.47216V8.4804H0.367593V8.41858ZM2.75403 8.48042H2.65286V7.48631H2.75403V8.48042ZM2.93476 7.73263H5.06582V7.83615H2.93476V7.73263ZM4.74369 7.55191H4.54544V6.86098H4.74369V7.55191ZM4.36471 7.55191H4.09066V6.86098H4.36471V7.55191ZM3.90993 7.55191H3.63588V6.86098H3.90993V7.55191ZM3.45516 7.55191H3.2569V6.86098H3.45516V7.55191ZM2.93476 8.01688H5.06582V8.13934H2.93476V8.01688ZM2.93476 8.32005H5.06582V8.4804H2.93476V8.32005ZM5.06582 7.39593V7.55189H4.9244V6.7706C4.9244 6.7207 4.88393 6.68024 4.83404 6.68024H3.16652C3.11662 6.68024 3.07616 6.7207 3.07616 6.7706V7.55189H2.93474V7.39593C2.93474 7.34603 2.89428 7.30556 2.84438 7.30556H2.8145V6.67698L3.22079 6.40615H4.15458C4.20448 6.40615 4.24494 6.36568 4.24494 6.31578C4.24494 6.26589 4.20448 6.22542 4.15458 6.22542H3.49192L3.64622 6.12257H3.86542C3.91532 6.12257 3.95578 6.08211 3.95578 6.03221C3.95578 5.99614 3.93449 5.96525 3.90395 5.95077L4.0003 5.88654L5.18607 6.677V7.30558H5.15618C5.10628 7.30556 5.06582 7.34603 5.06582 7.39593ZM5.34771 8.48042H5.24654V7.48631H5.34771V8.48042ZM5.52844 8.48042V8.41859H5.70746C5.75736 8.41859 5.79783 8.37813 5.79783 8.32823C5.79783 8.27833 5.75736 8.23787 5.70746 8.23787H5.52844V8.18365H5.91781C5.96771 8.18365 6.00817 8.14319 6.00817 8.09329C6.00817 8.04339 5.96771 8.00293 5.91781 8.00293H5.52844V7.94108H7.63291V8.00293H7.24354C7.19364 8.00293 7.15317 8.04339 7.15317 8.09329C7.15317 8.14319 7.19364 8.18365 7.24354 8.18365H7.63291V8.23787H6.91823C6.86833 8.23787 6.82787 8.27833 6.82787 8.32823C6.82787 8.37813 6.86833 8.41859 6.91823 8.41859H7.63291V8.48042H5.52844ZM7.48703 7.76034H5.52844V7.39593C5.52844 7.34603 5.48797 7.30556 5.43807 7.30556H5.3668V6.79745L5.51038 6.89317C5.52551 6.90325 5.54298 6.90835 5.56051 6.90835C5.57514 6.90835 5.58979 6.9048 5.60315 6.89765C5.63253 6.88192 5.65088 6.85131 5.65088 6.81798V6.47208C5.65088 6.44186 5.63579 6.41365 5.61063 6.39689L5.37317 6.2386V3.37822L7.48701 4.18446V7.76034H7.48703ZM7.768 4.09821L5.47209 3.22253V3.11198L7.768 3.98766V4.09821Z" fill="black"/>
<path d="M3.99106 3.25049C3.8366 3.25049 3.71094 3.37615 3.71094 3.53061V3.94722C3.71094 3.99712 3.7514 4.03758 3.8013 4.03758H4.19924C4.24914 4.03758 4.2896 3.99712 4.2896 3.94722V3.53061C4.2896 3.37615 4.16394 3.25049 4.00948 3.25049H3.99106ZM4.10886 3.53061V3.85686H3.89164V3.53061C3.89164 3.4758 3.93623 3.43121 3.99104 3.43121H4.00946C4.06427 3.43121 4.10886 3.4758 4.10886 3.53061Z" fill="black"/>
<path d="M4.00899 4.27539H3.99057C3.83611 4.27539 3.71045 4.40105 3.71045 4.55551V4.97212C3.71045 5.02202 3.75091 5.06249 3.80081 5.06249H4.19875C4.24865 5.06249 4.28911 5.02202 4.28911 4.97212V4.55551C4.28911 4.40107 4.16345 4.27539 4.00899 4.27539ZM4.10839 4.88178H3.89117V4.55553C3.89117 4.50072 3.93576 4.45613 3.99057 4.45613H4.00899C4.0638 4.45613 4.10839 4.50072 4.10839 4.55553V4.88178Z" fill="black"/>
<path d="M0.865753 5.1367H1.26369C1.31359 5.1367 1.35405 5.09624 1.35405 5.04634V4.62973C1.35405 4.47527 1.2284 4.34961 1.07393 4.34961H1.05551C0.901049 4.34961 0.775391 4.47527 0.775391 4.62973V5.04634C0.775391 5.09624 0.815837 5.1367 0.865753 5.1367ZM0.956116 4.62973C0.956116 4.57492 1.0007 4.53033 1.05551 4.53033H1.07393C1.12874 4.53033 1.17333 4.57492 1.17333 4.62973V4.95598H0.956116V4.62973Z" fill="black"/>
<path d="M1.92793 4.34961H1.90952C1.75505 4.34961 1.62939 4.47527 1.62939 4.62973V5.04634C1.62939 5.09624 1.66986 5.1367 1.71976 5.1367H2.1177C2.16759 5.1367 2.20806 5.09624 2.20806 5.04634V4.62973C2.20806 4.47527 2.0824 4.34961 1.92793 4.34961ZM2.02733 4.95598H1.81012V4.62973C1.81012 4.57492 1.8547 4.53033 1.90952 4.53033H1.92793C1.98275 4.53033 2.02733 4.57492 2.02733 4.62973V4.95598Z" fill="black"/>
<path d="M0.865753 6.29247H1.26369C1.31359 6.29247 1.35405 6.252 1.35405 6.2021V5.7855C1.35405 5.63103 1.2284 5.50537 1.07393 5.50537H1.05551C0.901049 5.50537 0.775391 5.63103 0.775391 5.7855V6.2021C0.775391 6.252 0.815837 6.29247 0.865753 6.29247ZM0.956116 5.78548C0.956116 5.73066 1.0007 5.68608 1.05551 5.68608H1.07393C1.12874 5.68608 1.17333 5.73066 1.17333 5.78548V6.11172H0.956116V5.78548Z" fill="black"/>
<path d="M1.92793 5.50537H1.90952C1.75505 5.50537 1.62939 5.63103 1.62939 5.7855V6.2021C1.62939 6.252 1.66986 6.29246 1.71976 6.29246H2.1177C2.16759 6.29246 2.20806 6.252 2.20806 6.2021V5.7855C2.20806 5.63103 2.0824 5.50537 1.92793 5.50537ZM2.02733 6.11176H1.81012V5.78551C1.81012 5.7307 1.8547 5.68611 1.90952 5.68611H1.92793C1.98275 5.68611 2.02733 5.7307 2.02733 5.78551V6.11176Z" fill="black"/>
<path d="M0.865753 7.44823H1.26369C1.31359 7.44823 1.35405 7.40776 1.35405 7.35786V6.94126C1.35405 6.78679 1.2284 6.66113 1.07393 6.66113H1.05551C0.901049 6.66113 0.775391 6.78679 0.775391 6.94126V7.35786C0.775391 7.40776 0.815837 7.44823 0.865753 7.44823ZM0.956116 6.94126C0.956116 6.88644 1.0007 6.84186 1.05551 6.84186H1.07393C1.12874 6.84186 1.17333 6.88644 1.17333 6.94126V7.2675H0.956116V6.94126Z" fill="black"/>
<path d="M1.92793 6.66113H1.90952C1.75505 6.66113 1.62939 6.78679 1.62939 6.94126V7.35786C1.62939 7.40776 1.66986 7.44823 1.71976 7.44823H2.1177C2.16759 7.44823 2.20806 7.40776 2.20806 7.35786V6.94126C2.20806 6.78679 2.0824 6.66113 1.92793 6.66113ZM2.02733 7.2675H1.81012V6.94126C1.81012 6.88644 1.8547 6.84186 1.90952 6.84186H1.92793C1.98275 6.84186 2.02733 6.88644 2.02733 6.94126V7.2675Z" fill="black"/>
<path d="M6.73636 5.1367H7.1343C7.1842 5.1367 7.22466 5.09624 7.22466 5.04634V4.62973C7.22466 4.47527 7.099 4.34961 6.94454 4.34961H6.92612C6.77165 4.34961 6.646 4.47527 6.646 4.62973V5.04634C6.646 5.09624 6.68646 5.1367 6.73636 5.1367ZM6.82672 4.62973C6.82672 4.57492 6.87131 4.53033 6.92612 4.53033H6.94454C6.99935 4.53033 7.04394 4.57492 7.04394 4.62973V4.95598H6.82672V4.62973Z" fill="black"/>
<path d="M6.07212 4.34961C5.91765 4.34961 5.79199 4.47527 5.79199 4.62973V5.04634C5.79199 5.09624 5.83246 5.1367 5.88235 5.1367H6.28029C6.33019 5.1367 6.37066 5.09624 6.37066 5.04634V4.62973C6.37066 4.47527 6.245 4.34961 6.09053 4.34961H6.07212ZM6.18993 4.62973V4.95598H5.97272V4.62973C5.97272 4.57492 6.0173 4.53033 6.07212 4.53033H6.09053C6.14533 4.53033 6.18993 4.57492 6.18993 4.62973Z" fill="black"/>
<path d="M6.94454 5.50537H6.92612C6.77165 5.50537 6.646 5.63103 6.646 5.7855V6.2021C6.646 6.252 6.68646 6.29246 6.73636 6.29246H7.1343C7.1842 6.29246 7.22466 6.252 7.22466 6.2021V5.7855C7.22466 5.63103 7.099 5.50537 6.94454 5.50537ZM7.04394 6.11176H6.82672V5.78551C6.82672 5.7307 6.87131 5.68611 6.92612 5.68611H6.94454C6.99935 5.68611 7.04394 5.7307 7.04394 5.78551V6.11176Z" fill="black"/>
<path d="M6.09053 5.50537H6.07212C5.91765 5.50537 5.79199 5.63103 5.79199 5.7855V6.2021C5.79199 6.252 5.83246 6.29246 5.88235 6.29246H6.28029C6.33019 6.29246 6.37066 6.252 6.37066 6.2021V5.7855C6.37066 5.63103 6.245 5.50537 6.09053 5.50537ZM6.18993 6.11176H5.97272V5.78551C5.97272 5.7307 6.0173 5.68611 6.07212 5.68611H6.09053C6.14535 5.68611 6.18993 5.7307 6.18993 5.78551V6.11176Z" fill="black"/>
<path d="M6.94454 6.66113H6.92612C6.77165 6.66113 6.646 6.78679 6.646 6.94126V7.35786C6.646 7.40776 6.68646 7.44823 6.73636 7.44823H7.1343C7.1842 7.44823 7.22466 7.40776 7.22466 7.35786V6.94126C7.22466 6.78679 7.099 6.66113 6.94454 6.66113ZM7.04394 7.2675H6.82672V6.94126C6.82672 6.88644 6.87131 6.84186 6.92612 6.84186H6.94454C6.99935 6.84186 7.04394 6.88644 7.04394 6.94126V7.2675Z" fill="black"/>
<path d="M6.09053 6.66113H6.07212C5.91765 6.66113 5.79199 6.78679 5.79199 6.94126V7.35786C5.79199 7.40776 5.83246 7.44823 5.88235 7.44823H6.28029C6.33019 7.44823 6.37066 7.40776 6.37066 7.35786V6.94126C6.37066 6.78679 6.245 6.66113 6.09053 6.66113ZM6.18993 7.2675H5.97272V6.94126C5.97272 6.88644 6.0173 6.84186 6.07212 6.84186H6.09053C6.14535 6.84186 6.18993 6.88644 6.18993 6.94126V7.2675Z" fill="black"/>
<path d="M3.68213 2.29871C3.68213 2.47392 3.82467 2.61646 3.99988 2.61646C4.17509 2.61646 4.31763 2.47392 4.31763 2.29871C4.31763 2.1235 4.17509 1.98096 3.99988 1.98096C3.82467 1.98096 3.68213 2.1235 3.68213 2.29871ZM4.13691 2.29871C4.13691 2.37427 4.07544 2.43573 3.99988 2.43573C3.92432 2.43573 3.86285 2.37427 3.86285 2.29871C3.86285 2.22315 3.92432 2.16168 3.99988 2.16168C4.07544 2.16168 4.13691 2.22315 4.13691 2.29871Z" fill="black"/>
<path d="M3.43118 3.13092H4.0095C4.0594 3.13092 4.09987 3.09046 4.09987 3.04056C4.09987 2.99066 4.0594 2.9502 4.0095 2.9502H3.43118C3.38128 2.9502 3.34082 2.99066 3.34082 3.04056C3.34082 3.09046 3.38127 3.13092 3.43118 3.13092Z" fill="black"/>
<path d="M2.2886 3.74518H2.4874C2.5373 3.74518 2.57776 3.70471 2.57776 3.65482C2.57776 3.60492 2.5373 3.56445 2.4874 3.56445H2.2886C2.23871 3.56445 2.19824 3.60492 2.19824 3.65482C2.19824 3.70471 2.23871 3.74518 2.2886 3.74518Z" fill="black"/>
<path d="M1.97952 3.9986H2.48736C2.53726 3.9986 2.57772 3.95813 2.57772 3.90823C2.57772 3.85834 2.53726 3.81787 2.48736 3.81787H1.97952C1.92962 3.81787 1.88916 3.85834 1.88916 3.90823C1.88916 3.95813 1.92961 3.9986 1.97952 3.9986Z" fill="black"/>
<path d="M5.51273 3.74518H5.71152C5.76142 3.74518 5.80189 3.70471 5.80189 3.65482C5.80189 3.60492 5.76142 3.56445 5.71152 3.56445H5.51273C5.46283 3.56445 5.42236 3.60492 5.42236 3.65482C5.42236 3.70471 5.46281 3.74518 5.51273 3.74518Z" fill="black"/>
<path d="M5.42236 3.90823C5.42236 3.95813 5.46283 3.9986 5.51273 3.9986H6.02056C6.07046 3.9986 6.11093 3.95813 6.11093 3.90823C6.11093 3.85834 6.07046 3.81787 6.02056 3.81787H5.51273C5.46281 3.81787 5.42236 3.85832 5.42236 3.90823Z" fill="black"/>
<path d="M1.04726 7.52246H0.64798C0.598082 7.52246 0.557617 7.56293 0.557617 7.61282C0.557617 7.66272 0.598082 7.70319 0.64798 7.70319H1.04727C1.09717 7.70319 1.13764 7.66272 1.13764 7.61282C1.13764 7.56293 1.09717 7.52246 1.04726 7.52246Z" fill="black"/>
<path d="M1.28079 7.52246C1.25694 7.52246 1.23362 7.53204 1.21682 7.54885C1.20001 7.56565 1.19043 7.58897 1.19043 7.61282C1.19043 7.63668 1.20001 7.65999 1.21682 7.67662C1.23362 7.69361 1.25694 7.70319 1.28079 7.70319C1.30465 7.70319 1.32778 7.69361 1.34459 7.6768C1.3614 7.65999 1.37115 7.63668 1.37115 7.61282C1.37115 7.58897 1.3614 7.56565 1.34459 7.54885C1.32778 7.53204 1.30465 7.52246 1.28079 7.52246Z" fill="black"/>
<path d="M4.25098 4.19144C4.25098 4.24134 4.29144 4.2818 4.34134 4.2818H4.49797C4.54787 4.2818 4.58834 4.24134 4.58834 4.19144C4.58834 4.14154 4.54787 4.10107 4.49797 4.10107H4.34134C4.29144 4.10107 4.25098 4.14154 4.25098 4.19144Z" fill="black"/>
<path d="M4.39502 4.41409C4.39502 4.46399 4.43548 4.50446 4.48538 4.50446H4.64202C4.69192 4.50446 4.73238 4.46399 4.73238 4.41409C4.73238 4.36419 4.69192 4.32373 4.64202 4.32373H4.48538C4.43548 4.32373 4.39502 4.36419 4.39502 4.41409Z" fill="black"/>
<path d="M3.37747 5.25739H3.53411C3.584 5.25739 3.62447 5.21692 3.62447 5.16702C3.62447 5.11712 3.584 5.07666 3.53411 5.07666H3.37747C3.32757 5.07666 3.28711 5.11712 3.28711 5.16702C3.28711 5.21692 3.32756 5.25739 3.37747 5.25739Z" fill="black"/>
<path d="M6.58206 5.47418H6.7387C6.78859 5.47418 6.82906 5.43372 6.82906 5.38382C6.82906 5.33392 6.78859 5.29346 6.7387 5.29346H6.58206C6.53216 5.29346 6.4917 5.33392 6.4917 5.38382C6.4917 5.43372 6.53216 5.47418 6.58206 5.47418Z" fill="black"/>
</g>
<defs>
<clipPath id="clip0_1013_1520">
<rect width="8" height="8" fill="white" transform="translate(0 0.661133)"/>
</clipPath>
</defs>
</svg>
