<svg width="24" height="25" viewBox="0 0 24 25" fill="none" xmlns="http://www.w3.org/2000/svg">
<path fill-rule="evenodd" clip-rule="evenodd" d="M1.66381 8.06797C1.66381 5.9876 2.18334 4.5794 3.0773 3.68545C3.97125 2.7915 5.37944 2.27197 7.45981 2.27197H16.2918C18.3722 2.27197 19.7804 2.7915 20.6743 3.68545C21.5683 4.5794 22.0878 5.9876 22.0878 8.06797V13.588C22.0878 15.6683 21.5683 17.0765 20.6743 17.9705C19.7804 18.8644 18.3722 19.384 16.2918 19.384H15.7398C15.1349 19.384 14.5613 19.6737 14.1974 20.1526L14.1942 20.1568L12.5382 22.3648C12.3073 22.6727 12.0594 22.7622 11.8758 22.7622C11.6922 22.7622 11.4443 22.6727 11.2134 22.3648L9.56031 20.1606C9.36938 19.9008 9.10259 19.7168 8.86671 19.5998C8.6278 19.4814 8.32404 19.384 8.01181 19.384H7.45981C5.26645 19.384 3.89264 19.0955 3.03705 18.3468C2.20882 17.6221 1.66381 16.2766 1.66381 13.588V8.06797ZM7.45981 0.615967C5.12418 0.615967 3.22037 1.20044 1.90633 2.51448C0.592281 3.82853 0.0078125 5.73234 0.0078125 8.06797V13.588C0.0078125 16.4194 0.566804 18.3858 1.94657 19.5931C3.29899 20.7765 5.23717 21.04 7.45981 21.04H8.00623C8.00921 21.0404 8.0187 21.0418 8.03469 21.0461C8.06185 21.0535 8.0957 21.0659 8.1312 21.0835C8.16678 21.1012 8.19576 21.1199 8.21572 21.1354C8.22381 21.1417 8.22879 21.1462 8.23124 21.1485L8.23261 21.1504L9.88861 23.3584C10.3863 24.022 11.0989 24.4182 11.8758 24.4182C12.6527 24.4182 13.3653 24.022 13.863 23.3584L15.5158 21.1546L15.517 21.1531C15.5726 21.0809 15.6608 21.04 15.7398 21.04H16.2918C18.6274 21.04 20.5312 20.4555 21.8453 19.1415C23.1593 17.8274 23.7438 15.9236 23.7438 13.588V8.06797C23.7438 5.73234 23.1593 3.82853 21.8453 2.51448C20.5312 1.20044 18.6274 0.615967 16.2918 0.615967H7.45981ZM16.2879 10.276C15.6782 10.276 15.1839 10.7702 15.1839 11.38C15.1839 11.9897 15.6782 12.484 16.2879 12.484H16.2978C16.9075 12.484 17.4018 11.9897 17.4018 11.38C17.4018 10.7702 16.9075 10.276 16.2978 10.276H16.2879ZM10.7668 11.38C10.7668 10.7702 11.2611 10.276 11.8708 10.276H11.8807C12.4905 10.276 12.9847 10.7702 12.9847 11.38C12.9847 11.9897 12.4905 12.484 11.8807 12.484H11.8708C11.2611 12.484 10.7668 11.9897 10.7668 11.38ZM7.45375 10.276C6.84403 10.276 6.34975 10.7702 6.34975 11.38C6.34975 11.9897 6.84403 12.484 7.45375 12.484H7.46367C8.07339 12.484 8.56767 11.9897 8.56767 11.38C8.56767 10.7702 8.07339 10.276 7.46367 10.276H7.45375Z" fill="#AAAAAA"/>
</svg>
