<svg width="12" height="12" viewBox="0 0 12 12" fill="none" xmlns="http://www.w3.org/2000/svg">
<path d="M10.8535 5.64646L6.8535 1.64646C6.78358 1.57653 6.6945 1.52891 6.59752 1.50961C6.50053 1.49032 6.4 1.50021 6.30864 1.53805C6.21729 1.57589 6.1392 1.63997 6.08426 1.72219C6.02932 1.80441 6 1.90107 6 1.99996V3.77242C4.63415 3.89884 3.36463 4.53039 2.43986 5.54348C1.5151 6.55656 1.00165 7.87827 1 9.24996V9.99996C0.999992 10.1038 1.03231 10.2051 1.09248 10.2897C1.15264 10.3743 1.23766 10.4381 1.33573 10.4722C1.43381 10.5064 1.54007 10.5091 1.63977 10.4801C1.73947 10.451 1.82766 10.3917 1.89209 10.3103C2.38191 9.72773 2.98291 9.24865 3.65998 8.90102C4.33705 8.55339 5.07661 8.34418 5.83545 8.2856C5.86035 8.28243 5.92285 8.27755 6 8.27266V9.99996C6 10.0988 6.02932 10.1955 6.08426 10.2777C6.1392 10.3599 6.21729 10.424 6.30864 10.4619C6.4 10.4997 6.50053 10.5096 6.59752 10.4903C6.6945 10.471 6.78358 10.4234 6.8535 10.3535L10.8535 6.35346C10.8999 6.30704 10.9368 6.25193 10.9619 6.19128C10.987 6.13062 11 6.06561 11 5.99996C11 5.9343 10.987 5.86929 10.9619 5.80864C10.9368 5.74798 10.8999 5.69287 10.8535 5.64646ZM7 8.79293V7.74996C7.00002 7.68429 6.9871 7.61927 6.96197 7.5586C6.93685 7.49792 6.90002 7.4428 6.85359 7.39637C6.80716 7.34993 6.75203 7.3131 6.69136 7.28798C6.63069 7.26286 6.56567 7.24994 6.5 7.24996C6.37256 7.24996 5.85205 7.27462 5.71924 7.29246C4.37154 7.41658 3.08868 7.9286 2.02588 8.76656C2.14645 7.66372 2.66959 6.64411 3.49513 5.90299C4.32068 5.16187 5.39059 4.75132 6.5 4.74996C6.56567 4.74997 6.63069 4.73705 6.69136 4.71193C6.75203 4.68681 6.80716 4.64998 6.85359 4.60355C6.90002 4.55712 6.93685 4.50199 6.96197 4.44132C6.9871 4.38065 7.00002 4.31562 7 4.24996V3.20699L9.79297 5.99996L7 8.79293Z" fill="black"/>
</svg>
